<svg width="24" height="24" viewBox="0 0 24 24" fill="none" xmlns="http://www.w3.org/2000/svg">
    <path d="M18 20V18.3333C18 17.4493 17.6388 16.6014 16.9958 15.9763C16.3528 15.3512 15.4807 15 14.5714 15H9.42857C8.51926 15 7.64719 15.3512 7.00421 15.9763C6.36122 16.6014 6 17.4493 6 18.3333V20" stroke="#00A1E0" stroke-width="2" stroke-linecap="round" stroke-linejoin="round"/>
    <path d="M18 4C18.5726 4.17229 19.0796 4.56038 19.4416 5.10335C19.8036 5.64633 20 6.31345 20 7C20 7.68655 19.8036 8.35367 19.4416 8.89665C19.0796 9.43962 18.5726 9.82771 18 10" stroke="#00A1E0" stroke-width="2" stroke-linecap="round" stroke-linejoin="round"/>
    <path d="M22 20V17.9557C21.9996 17.0498 21.8029 16.1698 21.4409 15.4538C21.0789 14.7378 20.5721 14.2265 20 14" stroke="#00A1E0" stroke-width="2" stroke-linecap="round" stroke-linejoin="round"/>
    <path d="M11.5 11C13.433 11 15 9.433 15 7.5C15 5.567 13.433 4 11.5 4C9.567 4 8 5.567 8 7.5C8 9.433 9.567 11 11.5 11Z" stroke="#00A1E0" stroke-width="2" stroke-linecap="round" stroke-linejoin="round"/>
    <path d="M5.5 20.5H19" stroke="#00A1E0"/>
    <path d="M5 10C4.42744 9.82771 3.92037 9.43962 3.55839 8.89665C3.1964 8.35367 3 7.68655 3 7C3 6.31345 3.1964 5.64633 3.55839 5.10335C3.92037 4.56038 4.42744 4.17229 5 4" stroke="#00A1E0" stroke-width="2" stroke-linecap="round" stroke-linejoin="round"/>
    <path d="M2.11938 19.8957L2.08452 17.8987C2.06952 17.0138 2.24949 16.1508 2.59618 15.4451C2.94288 14.7394 3.43666 14.2311 4 14" stroke="#00A1E0" stroke-width="2" stroke-linecap="round" stroke-linejoin="round"/>
    <rect x="6" y="16" width="12" height="4" fill="#00A1E0"/>
    <circle cx="11.5" cy="7.5" r="2.5" fill="#00A1E0"/>
</svg>
