<svg width="32" height="29" viewBox="0 0 32 29" fill="none" xmlns="http://www.w3.org/2000/svg">
    <path d="M20.1143 2.14813C20.1143 3.13091 19.6808 4.07343 18.9092 4.76836C18.1376 5.46328 17.0912 5.85369 16 5.85369C14.9088 5.85369 13.8623 5.46328 13.0907 4.76836C12.3192 4.07343 11.8857 3.13091 11.8857 2.14813H9.14283C8.41538 2.14813 7.71773 2.4084 7.20334 2.87169C6.68895 3.33497 6.39998 3.96332 6.39998 4.6185V24.3815C6.39998 25.0366 6.68895 25.665 7.20334 26.1283C7.71773 26.5916 8.41538 26.8518 9.14283 26.8518H11.8857C11.8857 25.8691 12.3192 24.9265 13.0907 24.2316C13.8623 23.5367 14.9088 23.1463 16 23.1463C17.0912 23.1463 18.1376 23.5367 18.9092 24.2316C19.6808 24.9265 20.1143 25.8691 20.1143 26.8518H22.8571C23.5846 26.8518 24.2822 26.5916 24.7966 26.1283C25.311 25.665 25.6 25.0366 25.6 24.3815V4.6185C25.6 3.96332 25.311 3.33497 24.7966 2.87169C24.2822 2.4084 23.5846 2.14813 22.8571 2.14813H20.1143Z" stroke="black" stroke-width="2" stroke-linecap="round" stroke-linejoin="round"/>
    <path d="M23.3334 15.7083H20.6667" stroke="black" stroke-width="2" stroke-linecap="round" stroke-linejoin="round"/>
    <path d="M11.3334 15.7083H8.66671" stroke="black" stroke-width="2" stroke-linecap="round" stroke-linejoin="round"/>
    <path d="M17.3334 15.7083H14.6667" stroke="black" stroke-width="2" stroke-linecap="round" stroke-linejoin="round"/>
</svg>
