<svg width="48" height="47" viewBox="0 0 48 47" fill="none" xmlns="http://www.w3.org/2000/svg">
    <path d="M10 9H38V38C27.5 38 20.9347 38 10 38V9Z" fill="#00A1E0"/>
    <path d="M10 13H19V42C15.625 42 13.5147 42 10 42V13Z" fill="#00A1E0"/>
    <path d="M10 4H19V33C15.625 33 13.5147 33 10 33V4Z" fill="#00A1E0"/>
    <path d="M12 7H21V36C17.625 36 15.5147 36 12 36V7Z" fill="#00A1E0"/>
    <path d="M29.5 4H38.5V33C35.125 33 33.0147 33 29.5 33V4Z" fill="#00A1E0"/>
    <path d="M29 14H38V43C34.625 43 32.5147 43 29 43V14Z" fill="#00A1E0"/>
    <path d="M28 7H37V36C33.625 36 31.5147 36 28 36V7Z" fill="#00A1E0"/>
    <path d="M30.3674 3C30.3674 4.59277 29.7172 6.12031 28.5598 7.24657C27.4024 8.37283 25.8327 9.00556 24.1959 9.00556C22.5592 9.00556 20.9895 8.37283 19.8321 7.24657C18.6747 6.12031 18.0245 4.59277 18.0245 3H13.9102C12.8191 3 11.7726 3.42182 11.001 4.17266C10.2294 4.9235 9.79595 5.94186 9.79595 7.0037V39.0333C9.79595 40.0952 10.2294 41.1135 11.001 41.8644C11.7726 42.6152 12.8191 43.037 13.9102 43.037H18.0245C18.0245 41.4443 18.6747 39.9167 19.8321 38.7905C20.9895 37.6642 22.5592 37.0315 24.1959 37.0315C25.8327 37.0315 27.4024 37.6642 28.5598 38.7905C29.7172 39.9167 30.3674 41.4443 30.3674 43.037H34.4817C35.5728 43.037 36.6193 42.6152 37.3909 41.8644C38.1625 41.1135 38.5959 40.0952 38.5959 39.0333V7.0037C38.5959 5.94186 38.1625 4.9235 37.3909 4.17266C36.6193 3.42182 35.5728 3 34.4817 3H30.3674Z" stroke="white" stroke-width="2" stroke-linecap="round" stroke-linejoin="round"/>
    <path d="M35 25.4583H31" stroke="white" stroke-width="2" stroke-linecap="round" stroke-linejoin="round"/>
    <path d="M17 25.4583H13" stroke="white" stroke-width="2" stroke-linecap="round" stroke-linejoin="round"/>
    <path d="M26 25.4583H22" stroke="white" stroke-width="2" stroke-linecap="round" stroke-linejoin="round"/>
</svg>
